<svg width="15" height="15" viewBox="0 0 15 15" fill="none" xmlns="http://www.w3.org/2000/svg">
<path d="M14.8109 13.9309L10.5072 9.62055C11.3557 8.60219 11.866 7.30079 11.866 5.8794C11.866 2.63665 9.20689 0 5.93606 0C2.66523 0 0 2.63973 0 5.88247C0 9.12522 2.65908 11.7619 5.92991 11.7619C7.3194 11.7619 8.59822 11.285 9.61267 10.4882L13.9318 14.8108C14.1838 15.0631 14.5589 15.0631 14.8109 14.8108C15.063 14.5585 15.063 14.1832 14.8109 13.9309ZM1.26038 5.88247C1.26038 3.33504 3.3569 1.26449 5.92991 1.26449C8.50292 1.26449 10.5994 3.33504 10.5994 5.88247C10.5994 8.4299 8.50292 10.5005 5.92991 10.5005C3.3569 10.5005 1.26038 8.42683 1.26038 5.88247Z" fill="#D4D4D4"/>
</svg>
