<svg width="15" height="8" viewBox="0 0 15 8" fill="none" xmlns="http://www.w3.org/2000/svg">
<path fill-rule="evenodd" clip-rule="evenodd" d="M-9.15565e-09 0.591308C-1.69481e-08 1.09457 0.271016 1.21556 0.799964 1.74451C1.11485 2.0594 1.3993 2.34384 1.71421 2.65875C2.69991 3.64445 4.48296 5.35126 5.32847 6.27532L5.76596 6.7105C5.92843 6.87307 6.06057 7.00511 6.22309 7.16762C7.22503 8.16957 7.24895 8.36502 8.40479 7.20918L13.8279 1.78606C14.2742 1.33973 14.6279 1.11961 14.6279 0.591308C14.6279 0.346902 14.1137 -0.477944 13.2977 0.383157L12.5871 1.08545C12.4455 1.2321 12.3397 1.36272 12.1864 1.51593C11.7992 1.90307 7.49129 6.16489 7.35551 6.36767C7.14845 6.22903 2.24804 1.28098 1.67264 0.705587C1.25062 0.28355 1.08392 0.00951762 0.581791 0.00951762C0.322289 0.00951762 -5.13759e-09 0.331806 -9.15565e-09 0.591308Z" fill="#D4D4D4"/>
</svg>
